<svg width="21" height="21" viewBox="0 0 21 21" fill="none" xmlns="http://www.w3.org/2000/svg">
<g id="gift-card 1" clip-path="url(#clip0_319_408)">
<path id="Vector" d="M19.1844 6.6534C19.089 6.41453 18.893 6.2299 18.6489 6.14853C18.5771 6.1249 17.458 5.76178 15.2932 5.4984C15.5759 5.03465 15.7474 4.49653 15.7474 3.91553C15.7474 2.22678 14.3736 0.853027 12.6849 0.853027C11.8274 0.853027 11.0539 1.20915 10.4974 1.77878C9.94086 1.20915 9.16736 0.853027 8.30985 0.853027C6.62111 0.853027 5.24736 2.22678 5.24736 3.91553C5.24736 4.49653 5.41886 5.03465 5.70148 5.4984C3.53586 5.7609 2.41673 6.1249 2.34585 6.14853C2.10173 6.2299 1.90573 6.41453 1.81036 6.6534C1.77185 6.74878 0.87323 9.03953 0.87323 12.6655C0.87323 16.2915 1.77185 18.5823 1.81036 18.6777C1.90573 18.9165 2.10173 19.1012 2.34585 19.1825C2.45873 19.2202 5.16773 20.103 10.4974 20.103C15.827 20.103 18.5369 19.2202 18.6489 19.1825C18.893 19.1012 19.089 18.9165 19.1844 18.6777C19.2229 18.5823 20.1215 16.2915 20.1215 12.6655C20.1215 9.03953 19.2229 6.74878 19.1844 6.6534ZM12.684 2.60303C13.4076 2.60303 13.9965 3.1919 13.9965 3.91553C13.9965 4.63915 13.4076 5.22803 12.684 5.22803C12.6079 5.22803 11.753 5.24378 11.3715 5.23678V3.91553C11.3715 3.1919 11.9604 2.60303 12.684 2.60303ZM8.30898 5.22803C7.58536 5.22803 6.99648 4.63915 6.99648 3.91553C6.99648 3.1919 7.58536 2.60303 8.30898 2.60303C9.03261 2.60303 9.62148 3.1919 9.62148 3.91553V5.23678C9.23998 5.24378 8.38511 5.22803 8.30898 5.22803ZM3.30136 7.69728C4.12473 7.49078 6.21511 7.06728 9.51036 6.9929C9.30211 7.69728 8.69223 8.52415 6.89498 8.73328C6.41461 8.7884 6.07161 9.22328 6.12673 9.70278C6.18011 10.1849 6.62548 10.5288 7.09623 10.471C8.62573 10.2934 9.77198 9.6984 10.4956 8.78403C11.2192 9.6984 12.3655 10.2934 13.895 10.471C14.3666 10.5288 14.812 10.1849 14.8645 9.70278C14.9196 9.2224 14.5766 8.7884 14.0962 8.73328C12.299 8.52415 11.6891 7.6964 11.4809 6.9929C14.777 7.06728 16.8674 7.49078 17.6899 7.69728C17.9209 8.44803 18.3697 10.226 18.3697 12.6655C18.3697 13.131 18.3496 13.5633 18.3216 13.978H2.66961C2.64161 13.5633 2.62148 13.131 2.62148 12.6655C2.62148 10.2252 3.07123 8.44803 3.30136 7.69728ZM10.4965 18.353C6.61761 18.353 4.20523 17.8604 3.30136 17.6338C3.18323 17.2505 3.00998 16.5969 2.86648 15.728H18.1265C17.9839 16.5969 17.8097 17.2505 17.6916 17.6338C16.7877 17.8604 14.3745 18.353 10.4965 18.353Z" fill="#7A1DFF"/>
</g>
<defs>
<clipPath id="clip0_319_408">
<rect width="21" height="21" fill="white"/>
</clipPath>
</defs>
</svg>
