<svg width="12" height="12" viewBox="0 0 12 12" fill="none" xmlns="http://www.w3.org/2000/svg">
<path d="M5.99601 2.56295C5.96451 2.81245 5.75201 2.99995 5.50001 2.99995C5.24801 2.99995 5.03551 2.81245 5.00401 2.56295C4.93501 2.01945 4.58351 1.52645 4.06351 1.24295C3.23201 0.764953 1.91051 1.01745 1.34851 1.87045C0.111012 3.72845 2.43151 6.64695 4.79501 8.58145C4.90151 8.66845 5.02251 8.73445 5.15451 8.77745C5.41701 8.86295 5.56051 9.14495 5.47501 9.40795C5.40651 9.61895 5.21051 9.75295 4.99951 9.75295C4.68851 9.72345 4.40451 9.54195 4.16151 9.35545C1.34601 7.05045 -1.09049 3.72845 0.515512 1.31645C0.792512 0.900953 1.18201 0.563953 1.64151 0.342453C2.60501 -0.121047 3.66201 -0.112547 4.54051 0.364953C4.92651 0.574953 5.25251 0.863453 5.49951 1.20245C5.74651 0.863453 6.07251 0.574953 6.45851 0.364953C7.33651 -0.112547 8.39401 -0.121047 9.35751 0.342453C9.81751 0.563953 10.207 0.900953 10.4835 1.31695C11.038 2.14945 11.422 3.59695 10.102 5.76045C9.95851 5.99695 9.65051 6.07195 9.41451 5.92695C9.17901 5.78345 9.10451 5.47545 9.24801 5.23995C10.0875 3.86395 10.223 2.72995 9.65051 1.87145C9.08851 1.01745 7.76751 0.765953 6.93551 1.24345C6.41501 1.52645 6.06351 2.01995 5.99501 2.56345L5.99601 2.56295Z" fill="#6C7278"/>
<circle cx="8.5" cy="8.5" r="2.5" fill="#6C7278"/>
<path d="M7.23975 8.74096C7.17008 8.74096 7.1127 8.71888 7.06762 8.6747C7.02254 8.63052 7 8.57631 7 8.51205C7 8.44779 7.02254 8.39558 7.06762 8.35542C7.1127 8.31125 7.17008 8.28916 7.23975 8.28916H9.76025C9.82992 8.28916 9.8873 8.31125 9.93238 8.35542C9.97746 8.3996 10 8.45382 10 8.51807C10 8.58233 9.97746 8.63655 9.93238 8.68072C9.8873 8.72088 9.82992 8.74096 9.76025 8.74096H7.23975ZM8.49385 10C8.42008 10 8.35656 9.9759 8.30328 9.92771C8.2541 9.87952 8.22951 9.81928 8.22951 9.74699V7.25904C8.22951 7.18273 8.2541 7.12048 8.30328 7.07229C8.35656 7.0241 8.42213 7 8.5 7C8.57787 7 8.63934 7.0241 8.68443 7.07229C8.73361 7.12048 8.7582 7.18273 8.7582 7.25904V9.74096C8.7582 9.81727 8.73361 9.87952 8.68443 9.92771C8.63525 9.9759 8.57172 10 8.49385 10Z" fill="white"/>
</svg>
