<svg width="9" height="15" viewBox="0 0 9 15" fill="none" xmlns="http://www.w3.org/2000/svg">
<g id="back arrow" clip-path="url(#clip0_31_2571)">
<path id="Vector" d="M0.911502 2.47476C0.71722 2.28265 0.609286 2.02988 0.620079 1.76699C0.620079 1.50411 0.728013 1.26145 0.933089 1.06934C1.12737 0.887344 1.39721 0.776123 1.67784 0.776123C1.95847 0.776123 2.2283 0.867122 2.43338 1.04912L8.54246 6.77189C8.6396 6.86289 8.71515 6.97411 8.76912 7.09544C8.82309 7.21677 8.85547 7.34821 8.85547 7.47966C8.85547 7.6111 8.82309 7.74254 8.76912 7.87398C8.71515 7.99531 8.6396 8.10653 8.54246 8.19753L2.43338 13.9203C2.33623 14.0113 2.21751 14.0922 2.08799 14.1427C1.94767 14.1933 1.80736 14.2236 1.66704 14.2236C1.52673 14.2236 1.37562 14.2034 1.2461 14.1529C1.11658 14.1023 0.997849 14.0214 0.889914 13.9304C0.792773 13.8394 0.717219 13.7181 0.663252 13.5968C0.598492 13.4754 0.576904 13.344 0.576904 13.2024C0.576904 13.071 0.609285 12.9395 0.663252 12.8182C0.717219 12.6969 0.803567 12.5857 0.911501 12.4846L6.25425 7.47966L5.23967 6.53934L0.911502 2.47476Z" fill="#7A1DFF"/>
</g>
<defs>
<clipPath id="clip0_31_2571">
<rect width="8.27856" height="13.4475" fill="white" transform="translate(8.85547 14.2236) rotate(-180)"/>
</clipPath>
</defs>
</svg>
