<svg width="11" height="11" viewBox="0 0 11 11" fill="none" xmlns="http://www.w3.org/2000/svg">
<g clip-path="url(#clip0_17_34973)">
<path d="M6.18782 5.50035C6.18782 5.87985 5.87982 6.18785 5.50032 6.18785C5.12082 6.18785 4.81282 5.87985 4.81282 5.50035C4.81282 5.12085 5.12082 4.81285 5.50032 4.81285C5.87982 4.81285 6.18782 5.12085 6.18782 5.50035ZM7.79199 4.81285C7.41249 4.81285 7.10449 5.12085 7.10449 5.50035C7.10449 5.87985 7.41249 6.18785 7.79199 6.18785C8.17149 6.18785 8.47949 5.87985 8.47949 5.50035C8.47949 5.12085 8.17149 4.81285 7.79199 4.81285ZM3.20865 4.81285C2.82915 4.81285 2.52115 5.12085 2.52115 5.50035C2.52115 5.87985 2.82915 6.18785 3.20865 6.18785C3.58815 6.18785 3.89615 5.87985 3.89615 5.50035C3.89615 5.12085 3.58815 4.81285 3.20865 4.81285ZM11.0003 5.65619V8.70869C11.0003 9.97231 9.97228 11.0004 8.70865 11.0004H5.9967C2.7879 11.0004 0.215737 8.80402 0.0140706 5.89177C-0.0963877 4.2986 0.484779 2.73935 1.60861 1.61414C2.73245 0.488936 4.2917 -0.0940635 5.88349 0.0136448C8.75265 0.208436 11.0003 2.68665 11.0003 5.65619ZM10.0837 5.65619C10.0837 3.16698 8.21182 1.09027 5.82161 0.92802C5.71665 0.920686 5.6117 0.917478 5.5072 0.917478C4.28986 0.917478 3.11974 1.39781 2.25715 2.26177C1.32032 3.19952 0.835862 4.49981 0.928446 5.82852C1.0994 8.29435 3.23111 10.0841 5.99715 10.0841H8.70911C9.46719 10.0841 10.0841 9.46723 10.0841 8.70914V5.65664L10.0837 5.65619Z" fill="#6C7278"/>
</g>
<defs>
<clipPath id="clip0_17_34973">
<rect width="11" height="11" fill="white"/>
</clipPath>
</defs>
</svg>
