<svg width="16" height="90" viewBox="0 0 16 90" fill="none" xmlns="http://www.w3.org/2000/svg">
<path id="Subtract" fill-rule="evenodd" clip-rule="evenodd" d="M8 0H0V90H8C10.784 90 13.2359 88.5779 14.6688 86.4204H12V82.3551C12 80.146 13.7909 78.3551 16 78.3551V78.2244C13.7909 78.2244 12 76.4336 12 74.2244V66.0938C12 63.8846 13.7909 62.0938 16 62.0938V61.9631C13.7909 61.9631 12 60.1722 12 57.9631V49.8324C12 47.6232 13.7909 45.8324 16 45.8324V45.7017C13.7909 45.7017 12 43.9108 12 41.7017V33.571C12 31.3619 13.7909 29.571 16 29.571V29.4403C13.7909 29.4403 12 27.6495 12 25.4403V17.3097C12 15.1005 13.7909 13.3097 16 13.3097V13.179C13.7909 13.179 12 11.3881 12 9.17897V5.11363H15.4635C14.3056 2.12175 11.4006 0 8 0Z" fill="white"/>
</svg>
