<svg width="20" height="15" viewBox="0 0 20 15" fill="none" xmlns="http://www.w3.org/2000/svg">
<path d="M2.11565 -0.0078125H17.8843C18.4071 -0.0078125 18.9085 0.218191 19.2781 0.62048C19.6478 1.02277 19.8554 1.56839 19.8554 2.13731V12.8629C19.8554 13.4318 19.6478 13.9775 19.2781 14.3798C18.9085 14.782 18.4071 15.008 17.8843 15.008H2.11565C1.59288 15.008 1.09153 14.782 0.72188 14.3798C0.352229 13.9775 0.144562 13.4318 0.144562 12.8629V2.13731C0.144562 1.56839 0.352229 1.02277 0.72188 0.62048C1.09153 0.218191 1.59288 -0.0078125 2.11565 -0.0078125ZM2.11565 2.13731V12.8629H17.8843V2.13731H2.11565ZM10.9855 4.28243H15.9133C16.1746 4.28243 16.4253 4.39544 16.6101 4.59658C16.795 4.79772 16.8988 5.07053 16.8988 5.355C16.8988 5.63946 16.795 5.91227 16.6101 6.11341C16.4253 6.31456 16.1746 6.42756 15.9133 6.42756H10.9855C10.7242 6.42756 10.4735 6.31456 10.2887 6.11341C10.1038 5.91227 9.99999 5.63946 9.99999 5.355C9.99999 5.07053 10.1038 4.79772 10.2887 4.59658C10.4735 4.39544 10.7242 4.28243 10.9855 4.28243ZM10.9855 7.50012H15.9133C16.1746 7.50012 16.4253 7.61312 16.6101 7.81426C16.795 8.01541 16.8988 8.28822 16.8988 8.57268C16.8988 8.85714 16.795 9.12995 16.6101 9.3311C16.4253 9.53224 16.1746 9.64524 15.9133 9.64524H10.9855C10.7242 9.64524 10.4735 9.53224 10.2887 9.3311C10.1038 9.12995 9.99999 8.85714 9.99999 8.57268C9.99999 8.28822 10.1038 8.01541 10.2887 7.81426C10.4735 7.61312 10.7242 7.50012 10.9855 7.50012Z" fill="#2AD2C9"/>
<g clip-path="url(#clip0_31_2575)">
<path d="M6.79715 5.18791V5.75061C6.79715 6.05502 6.66155 6.34099 6.42651 6.54393C6.18244 6.75609 5.86604 6.87601 5.53157 6.87601C5.19709 6.87601 4.87166 6.75609 4.63662 6.54393C4.40159 6.34099 4.26599 6.05502 4.26599 5.75061V5.18791C4.26599 4.89272 4.40159 4.60675 4.63662 4.39459C4.87166 4.18242 5.19709 4.0625 5.53157 4.0625C5.86604 4.0625 6.18244 4.18242 6.42651 4.39459C6.66155 4.60675 6.79715 4.89272 6.79715 5.18791Z" fill="#2AD2C9"/>
<path d="M7.74636 8.50893V8.97017C7.74636 9.19156 7.63788 9.41295 7.46612 9.56977C7.28532 9.72659 7.04125 9.81883 6.79717 9.81883H4.26602C4.0129 9.81883 3.76883 9.72659 3.59707 9.56977C3.41627 9.41295 3.31683 9.19156 3.31683 8.97017V8.48126C3.31683 8.16762 3.42531 7.85398 3.62419 7.5957C3.82306 7.33741 4.1033 7.13446 4.42873 7.01454C4.47393 7.00532 4.51009 6.99609 4.55529 6.99609C4.60049 6.99609 4.63665 7.00532 4.68185 7.01454H6.29998C6.31806 7.01454 6.3271 7.01454 6.33614 7.02377C6.33614 7.01454 6.34518 7.01454 6.34518 7.01454C6.48982 7.00532 6.58022 7.01454 6.58926 7.01454C6.93277 7.13446 7.22205 7.33741 7.42996 7.60492C7.62884 7.87243 7.74636 8.18607 7.74636 8.50893Z" fill="#2AD2C9"/>
</g>
<defs>
<clipPath id="clip0_31_2575">
<rect width="5.91326" height="7.68429" fill="white" transform="translate(3.10117 4.0625)"/>
</clipPath>
</defs>
</svg>
