<svg width="140" height="26" viewBox="0 0 140 26" fill="none" xmlns="http://www.w3.org/2000/svg">
<g clip-path="url(#clip0_175_1514)">
<path d="M2.71055 3.80952C2.16844 3.91607 1.70765 3.99599 1.38238 4.0759C1.03001 4.15582 0.867377 4.2091 0.867377 4.23574L0 1.17231C0.054211 1.17231 0.298161 1.11903 0.813166 0.985841C1.30106 0.852648 1.9516 0.719456 2.71055 0.586264C3.49661 0.453071 4.36399 0.319879 5.36689 0.186686C6.3698 0.0801324 7.3727 0.0268555 8.42982 0.0268555C12.0349 0.0268555 14.8809 0.586264 16.941 1.73172C17.9981 2.31776 18.8112 3.037 19.3533 3.88944C19.8955 4.71523 20.1665 5.64757 20.1665 6.6332C20.1665 7.48563 19.9497 8.31142 19.5431 9.13722C19.1365 9.96301 18.5131 10.7355 17.727 11.4814C16.941 12.2006 15.9652 12.8666 14.7996 13.4527C13.6341 14.0387 12.333 14.5182 10.8422 14.8645C11.0591 15.1842 11.3572 15.5038 11.7367 15.8501C12.1162 16.1964 12.6583 16.5161 13.363 16.8091C14.0678 17.1021 14.908 17.3419 15.9652 17.5283C16.9952 17.7148 18.2691 17.8214 19.7599 17.8214V20.9647C17.5915 20.9647 15.7754 20.7782 14.3117 20.4053C12.848 20.0324 11.6554 19.5529 10.7338 18.9935C9.8122 18.434 9.10745 17.8214 8.61955 17.182C8.13166 16.5427 7.77928 15.93 7.58955 15.3973C7.18296 15.4505 6.80349 15.4772 6.42401 15.4772C6.04453 15.5038 5.63795 15.5038 5.20426 15.5038C5.25847 16.2763 5.36689 17.0488 5.52953 17.8214C5.66505 18.5939 5.8819 19.3131 6.12585 19.9791L3.09003 21.018C2.57502 19.5262 2.22265 17.9546 2.06002 16.303C1.89739 14.6247 1.84318 13.0264 1.89739 11.4281C1.9516 9.85646 2.06002 8.39134 2.24976 7.05941C2.38529 5.70085 2.54792 4.63531 2.71055 3.80952ZM15.3688 4.47548C15.0978 4.34229 14.7725 4.18246 14.3659 4.02263C13.9593 3.8628 13.4985 3.7296 12.9293 3.59641C12.3601 3.46322 11.7096 3.3833 10.9777 3.27675C10.2459 3.19683 9.37851 3.14356 8.45692 3.14356C8.05034 3.14356 7.67086 3.14356 7.29138 3.1702C6.91191 3.19683 6.53243 3.22347 6.15295 3.25011C6.09874 3.48986 6.01743 3.91607 5.909 4.47548C5.80058 5.03489 5.69216 5.72749 5.58374 6.52664C5.47532 7.3258 5.36689 8.23151 5.28558 9.21713C5.20426 10.2028 5.15005 11.215 5.12294 12.2806C7.02033 12.2806 8.72798 12.0941 10.2188 11.7211C11.7096 11.3482 12.9564 10.8687 13.9593 10.3093C14.9622 9.7499 15.7212 9.13722 16.2633 8.44462C16.7783 7.77865 17.0494 7.13933 17.0494 6.57992C17.0494 6.07379 16.8596 5.64757 16.5073 5.30127C16.0736 4.98161 15.7212 4.71523 15.3688 4.47548Z" fill="#8028FF"/>
<path d="M40.3872 11.5877C40.062 11.9873 39.5741 12.4934 38.8964 13.0528C38.2188 13.6122 37.3243 14.145 36.1859 14.5979C35.0475 15.0507 33.6651 15.397 32.0116 15.6368C30.3582 15.8765 28.4066 15.8499 26.1568 15.5835C26.7532 16.4359 27.6205 17.1552 28.7048 17.6879C29.789 18.2207 31.1985 18.4871 32.9061 18.4871C33.9903 18.4871 34.939 18.3272 35.7522 17.9809C36.5654 17.6346 37.243 17.2617 37.7851 16.8621C38.3272 16.4626 38.7338 16.0896 39.032 15.7433C39.303 15.397 39.4657 15.2105 39.4928 15.1573L42.2304 16.8355C42.1762 16.8888 41.9865 17.1552 41.5799 17.6613C41.2004 18.1674 40.6041 18.7268 39.8451 19.3395C39.0591 19.9256 38.1104 20.485 36.9448 20.9645C35.7793 21.4439 34.4511 21.6837 32.9332 21.6837C31.0087 21.6837 29.3282 21.3907 27.9187 20.8046C26.5092 20.2186 25.3437 19.4461 24.4221 18.5137C23.5005 17.5547 22.8229 16.4892 22.3892 15.2638C21.9555 14.0385 21.7386 12.8131 21.7386 11.5611C21.7386 10.1492 21.9826 8.73739 22.4976 7.37883C23.0126 6.02027 23.7174 4.7949 24.666 3.72936C25.7232 2.50399 26.97 1.59828 28.3795 0.958958C29.789 0.319635 31.3069 0.0266113 32.9332 0.0266113C34.8577 0.0266113 36.5654 0.39955 38.0291 1.17207C39.4928 1.94458 40.577 3.01012 41.2275 4.39532C41.8238 5.56741 42.0678 6.79278 41.9052 8.04479C41.7425 9.27016 41.2546 10.4689 40.3872 11.5877ZM24.9913 12.2004C26.5092 12.4401 27.9187 12.5733 29.274 12.5733C30.6022 12.5733 31.849 12.4934 32.9332 12.2537C34.0446 12.0406 34.9932 11.7209 35.8335 11.268C36.6738 10.8418 37.3514 10.2824 37.8393 9.6431C38.3272 9.03042 38.5983 8.36445 38.6796 7.67185C38.7609 6.97925 38.6525 6.33993 38.3543 5.70061C37.9478 4.87481 37.243 4.23549 36.2943 3.78264C35.3456 3.32978 34.2072 3.09004 32.9061 3.09004C32.1743 3.09004 31.4966 3.16995 30.9003 3.32978C30.304 3.48961 29.7619 3.70272 29.274 3.94247C28.7861 4.18221 28.3795 4.47524 28 4.76826C27.6205 5.08792 27.3224 5.38095 27.0784 5.67397C26.3737 6.44648 25.8587 7.35219 25.4792 8.36446C25.0997 9.37672 24.9371 10.4156 24.9371 11.4545V12.2004H24.9913Z" fill="#8028FF"/>
<path d="M66.2459 11.4279C66.788 11.3746 67.303 11.2947 67.7909 11.1881C68.2788 11.1082 68.7125 11.0016 69.092 10.9217C69.4714 10.8418 69.8509 10.7086 70.3117 10.5221L71.4501 13.479C71.3959 13.479 71.2062 13.5323 70.8809 13.6388C70.5557 13.7454 70.0949 13.8786 69.5528 14.0118C69.0107 14.145 68.3601 14.2782 67.6283 14.4114C66.8964 14.5179 66.1646 14.5712 65.3785 14.5712C65.0532 15.5035 64.6738 16.3826 64.2401 17.2084C63.8064 18.0342 63.3185 18.7801 62.7493 19.4194C62.2072 20.0587 61.6108 20.5648 60.9603 20.9378C60.3098 21.3107 59.6321 21.4972 58.8732 21.4972C57.7619 21.4972 56.7861 21.071 55.9729 20.2186C55.5663 19.7923 55.1868 19.2596 54.8887 18.6202C54.5905 17.9809 54.3195 17.2883 54.0755 16.5424C53.8045 17.2883 53.5063 17.9543 53.1539 18.5936C52.8287 19.2063 52.4492 19.7391 52.0155 20.1919C51.6089 20.6448 51.1481 20.9911 50.6331 21.2308C50.1181 21.4972 49.576 21.6038 48.9797 21.6038C48.5731 21.6038 48.0852 21.4972 47.5431 21.2841C47.001 21.071 46.486 20.5915 45.971 19.8722C45.5373 19.2862 45.1578 18.5403 44.8596 17.6346C44.5615 16.7289 44.3175 15.7433 44.1278 14.6511C43.9381 13.5589 43.8567 12.4135 43.8025 11.1881C43.7754 9.96274 43.8025 8.71073 43.8838 7.45872C43.9652 6.20671 44.1549 4.9547 44.3988 3.75597C44.6428 2.5306 44.941 1.38515 45.3204 0.292969L48.3291 1.33187C47.8141 2.74371 47.4618 4.2621 47.272 5.86041C47.0552 7.45872 46.9739 9.00375 47.001 10.5221C47.0281 12.0405 47.1365 13.4257 47.3805 14.6777C47.5973 15.9298 47.9226 16.942 48.3562 17.6613C48.4918 17.9543 48.6544 18.1674 48.7899 18.2739C48.8713 18.3272 48.9255 18.3805 48.9797 18.4071C49.4134 18.4071 49.8471 18.0342 50.2536 17.315C50.6602 16.5957 51.0397 15.5835 51.3921 14.3314C51.7444 13.0794 52.0426 11.6143 52.2865 9.90946C52.5305 8.23124 52.7202 6.41982 52.8287 4.50185V3.72933H52.8558C52.8829 3.24984 52.8829 2.77035 52.91 2.31749C52.91 1.838 52.9371 1.35851 52.9371 0.852377H56.1355C56.1355 1.35851 56.1355 1.94455 56.1084 2.63715C56.1084 3.32976 56.0813 4.10227 56.0271 4.92806C56 6.07352 56.0271 7.29889 56.1084 8.63081C56.1897 9.96274 56.2982 11.268 56.4608 12.52C56.6234 13.772 56.8674 14.8909 57.1655 15.8765C57.4637 16.8887 57.8432 17.608 58.2769 18.0608C58.4124 18.194 58.5479 18.3006 58.6292 18.3006C58.7106 18.3272 58.7919 18.3272 58.8461 18.3272C59.1985 18.3272 59.6593 18.0342 60.2014 17.4748C60.7435 16.9154 61.2856 16.0097 61.8277 14.7843C61.8819 14.6511 61.9361 14.4913 61.9903 14.3581C62.0445 14.2249 62.0987 14.0917 62.153 13.9319C61.2314 13.4524 60.4724 12.7598 59.849 11.8541C59.3611 11.1615 59.0087 10.389 58.7648 9.50988C58.5208 8.63081 58.4124 7.69847 58.4124 6.71284C58.4124 5.80713 58.5208 4.98134 58.7377 4.20882C58.9545 3.43631 59.2256 2.79699 59.605 2.23758C59.9845 1.70481 60.4182 1.27859 60.9332 0.958931C61.4482 0.665907 62.0174 0.506077 62.6137 0.506077C64.1317 0.506077 65.2701 1.27859 65.9748 2.79699C66.4898 3.83589 66.7338 5.22109 66.7338 6.89931C66.788 8.25787 66.6254 9.74963 66.2459 11.4279ZM63.1559 10.7885C63.2914 10.1226 63.3998 9.48324 63.4811 8.84392C63.5353 8.2046 63.5624 7.59191 63.5624 6.97923C63.5624 5.86041 63.454 5.06126 63.2643 4.52849C63.0745 3.99572 62.8577 3.72933 62.6951 3.72933C62.5595 3.72933 62.3698 3.99572 62.1258 4.50185C61.8548 5.00798 61.7464 5.7805 61.7464 6.76612C61.7464 7.43208 61.8277 8.04477 61.9903 8.63081C62.153 9.21686 62.3698 9.72299 62.668 10.1492C62.7493 10.389 62.939 10.6021 63.1559 10.7885Z" fill="#8028FF"/>
<path d="M74.9197 20.778C73.7271 20.778 72.6971 20.6182 71.8297 20.2985C70.9623 19.9789 70.2305 19.5526 69.6884 19.0465C69.1191 18.5404 68.7126 17.9543 68.4415 17.2884C68.1704 16.6224 68.0349 15.9565 68.0349 15.2905C68.0349 14.518 68.1975 13.7721 68.4957 12.9996C68.821 12.2271 69.2547 11.5345 69.851 10.9484C70.4473 10.3624 71.1791 9.85624 72.0465 9.4833C72.9139 9.11036 73.8626 8.92389 74.9468 8.92389C76.275 8.92389 77.5218 9.08372 78.7145 9.43002C79.9071 9.74968 80.9642 10.1493 81.94 10.6288C82.9158 11.1082 83.7561 11.5877 84.4609 12.0939C85.1656 12.6 85.7348 13.0262 86.1685 13.3725C86.1143 12.5734 86.0601 11.7476 85.9788 10.9218C85.8975 10.096 85.7619 9.32347 85.5722 8.55095C85.3824 7.80507 85.1385 7.11247 84.8403 6.44651C84.5422 5.80719 84.1898 5.24778 83.7832 4.76829C82.8887 3.70275 81.669 3.16998 80.0969 3.16998C79.3108 3.16998 78.6332 3.32981 78.0911 3.62283C77.549 3.9425 77.0882 4.26216 76.7629 4.6351C76.4105 5.00803 76.1666 5.35433 76.031 5.674C75.8955 5.99366 75.7871 6.15349 75.7871 6.18013L72.7784 5.1945C72.7784 5.14123 72.8326 5.00803 72.941 4.74165C73.0494 4.47526 73.2392 4.1556 73.4831 3.75603C73.7271 3.38309 74.0252 2.95687 74.4047 2.53066C74.7842 2.0778 75.245 1.67822 75.76 1.30529C76.3021 0.932347 76.9255 0.612685 77.6574 0.372939C78.3892 0.133192 79.2024 0 80.124 0C82.6719 0 84.7319 0.905708 86.2498 2.71712C87.0359 3.62283 87.6593 4.68837 88.1201 5.94038C88.5809 7.19239 88.9062 8.47104 89.0959 9.77632C89.2856 11.0816 89.3941 12.4135 89.4212 13.7188C89.4212 15.0241 89.3941 16.1962 89.3399 17.2617C89.2856 18.3006 89.2043 19.1797 89.0959 19.8457C89.0146 20.5383 88.9333 20.9112 88.9333 20.9911L85.7348 20.5116C85.789 20.1653 85.8161 19.7658 85.8974 19.2863C85.9517 18.8334 86.0059 18.3006 86.0601 17.7679C85.4909 18.1142 84.8403 18.4605 84.1085 18.8334C83.3766 19.2063 82.5364 19.526 81.6148 19.819C80.6932 20.1121 79.6632 20.3518 78.5519 20.5383C77.4134 20.6981 76.2208 20.778 74.9197 20.778ZM74.9197 12.0406C74.3505 12.0406 73.8355 12.1471 73.3747 12.3336C72.9139 12.5201 72.5073 12.7865 72.2092 13.0795C71.8839 13.3992 71.6399 13.7455 71.4773 14.1184C71.3147 14.4913 71.2334 14.8909 71.2334 15.2638C71.2334 16.0097 71.5586 16.5691 72.1821 16.9953C72.8326 17.3949 73.7271 17.608 74.9197 17.608C76.8984 17.608 78.6332 17.3683 80.0969 16.9154C81.5606 16.4626 82.7803 15.9565 83.7019 15.4237C83.3224 15.104 82.8345 14.7577 82.2382 14.3848C81.6419 13.9852 80.9642 13.6123 80.2053 13.266C79.4463 12.9197 78.6061 12.6266 77.7116 12.3603C76.8442 12.1738 75.9226 12.0406 74.9197 12.0406Z" fill="#8028FF"/>
<path d="M104.871 20.1387C105.196 20.6182 105.522 21.071 105.901 21.4973C106.281 21.9235 106.687 22.323 107.148 22.6693L105.224 25.2C104.519 24.6939 103.895 24.1078 103.353 23.4419C102.811 22.7759 102.323 22.1099 101.89 21.444C101.591 21.4973 101.32 21.5505 101.022 21.6038C100.751 21.6571 100.453 21.6571 100.155 21.6571C98.8809 21.6571 97.6882 21.3641 96.5498 20.8047C95.4385 20.2452 94.4356 19.4727 93.6224 18.4605C92.7821 17.4748 92.1316 16.3294 91.6437 14.9975C91.1558 13.6922 90.9119 12.2803 90.9119 10.7886C90.9119 9.29683 91.1558 7.91163 91.6437 6.5797C92.1316 5.27442 92.7821 4.10233 93.6224 3.14334C94.4627 2.15772 95.4385 1.3852 96.5498 0.825793C97.7154 0.293023 98.9351 0 100.209 0C101.483 0 102.676 0.293023 103.814 0.852431C104.925 1.41184 105.901 2.18436 106.741 3.16998C107.582 4.1556 108.232 5.30106 108.72 6.60634C109.208 7.91163 109.452 9.32347 109.452 10.8152C109.452 12.8131 109.045 14.6245 108.205 16.2761C107.365 17.9011 106.281 19.1797 104.871 20.1387ZM100.48 18.4605C100.182 17.7146 99.9651 17.1019 99.8296 16.5958C99.6941 16.0896 99.6127 15.8233 99.5856 15.77L102.703 15.0774C102.73 15.104 102.784 15.3171 102.92 15.7167C103.028 16.1163 103.218 16.6224 103.435 17.2351C104.275 16.5425 104.953 15.6368 105.468 14.518C105.983 13.3725 106.226 12.1471 106.226 10.7886C106.226 9.74968 106.064 8.73742 105.766 7.80507C105.44 6.87273 105.034 6.04693 104.465 5.35433C103.923 4.66173 103.272 4.12896 102.54 3.72939C101.808 3.32981 101.022 3.1167 100.182 3.1167C99.3417 3.1167 98.5556 3.32981 97.8238 3.72939C97.0919 4.12896 96.4414 4.68837 95.8993 5.35433C95.3572 6.04693 94.9235 6.84609 94.5982 7.80507C94.273 8.73742 94.1374 9.72304 94.1374 10.7886C94.1374 11.8541 94.3001 12.8397 94.5982 13.7721C94.9235 14.7044 95.3301 15.5302 95.8993 16.2228C96.4414 16.9154 97.0919 17.4482 97.8238 17.8478C98.5556 18.2474 99.3417 18.4605 100.182 18.4605H100.48Z" fill="#8028FF"/>
<path d="M140 13.6123C139.973 13.6656 139.892 13.9053 139.756 14.3315C139.621 14.7311 139.377 15.2372 139.078 15.8499C138.78 16.436 138.401 17.0753 137.94 17.7679C137.479 18.4605 136.964 19.0732 136.341 19.6592C135.744 20.2453 135.04 20.7248 134.281 21.0977C133.522 21.4706 132.654 21.6571 131.706 21.6571C130.567 21.6571 129.51 21.2575 128.507 20.485C127.504 19.7125 126.583 18.7002 125.688 17.4482C124.929 18.3539 124.225 19.0732 123.601 19.6326C122.951 20.192 122.381 20.6182 121.839 20.9112C121.297 21.2043 120.809 21.4174 120.403 21.4973C119.969 21.5772 119.59 21.6305 119.264 21.6305V18.4605C119.861 18.4605 120.538 18.1142 121.351 17.395C122.165 16.6757 123.032 15.7434 123.954 14.5446C123.276 13.266 122.68 11.9607 122.138 10.6021C121.595 9.24358 121.135 7.93829 120.728 6.71292C120.321 5.48755 119.969 4.39538 119.698 3.43639C119.427 2.47741 119.237 1.73153 119.102 1.25204L122.246 0.506158C122.463 1.35859 122.707 2.23766 122.978 3.17001C123.249 4.10235 123.574 5.06134 123.899 5.99369C124.225 6.95267 124.577 7.88502 124.956 8.81736C125.336 9.74971 125.715 10.6554 126.122 11.5079C127.179 9.85627 128.263 8.07149 129.32 6.12688C130.378 4.18227 131.353 2.21102 132.221 0.213135L135.148 1.51842C135.121 1.5717 134.986 1.86472 134.714 2.45077C134.443 3.03681 134.091 3.75605 133.657 4.66176C133.197 5.56747 132.682 6.60637 132.058 7.75183C131.435 8.89728 130.784 10.0694 130.052 11.2681C129.646 11.9341 129.239 12.5468 128.887 13.1328C128.507 13.7188 128.155 14.2516 127.803 14.7577C128.48 15.8766 129.131 16.7556 129.808 17.4482C130.486 18.1408 131.137 18.4605 131.76 18.4605C132.302 18.4605 132.817 18.3273 133.278 18.0343C133.739 17.7679 134.172 17.395 134.552 16.9687C134.931 16.5425 135.284 16.063 135.582 15.5835C135.88 15.0774 136.124 14.6246 136.341 14.1983C136.531 13.7721 136.693 13.4258 136.802 13.1328C136.91 12.8398 136.964 12.6799 136.964 12.6799L140 13.6123Z" fill="#2AD2C9"/>
</g>
<defs>
<clipPath id="clip0_175_1514">
<rect width="140" height="25.2" fill="white"/>
</clipPath>
</defs>
</svg>
