<svg width="45" height="103" viewBox="0 0 45 103" fill="none" xmlns="http://www.w3.org/2000/svg">
<g id="Subtract">
<mask id="path-1-inside-1_20_6385" fill="white">
<path fill-rule="evenodd" clip-rule="evenodd" d="M0 0H8C11.6743 0 14.77 2.47703 15.7084 5.85229H15V9.72942C15 10.2817 15.4477 10.7294 16 10.7294C16.5523 10.7294 17 10.2817 17 9.72942V5.85229H16.2916C17.23 2.47703 20.3257 0 24 0H37C41.4183 0 45 3.58172 45 8V95C45 99.4183 41.4183 103 37 103H24C20.988 103 18.3647 101.335 17 98.876V95.0263C17 94.474 16.5523 94.0263 16 94.0263C15.4477 94.0263 15 94.474 15 95.0263V98.876C13.6353 101.335 11.012 103 8 103H0V0ZM17 17.4837C17 16.9314 16.5523 16.4837 16 16.4837C15.4477 16.4837 15 16.9314 15 17.4837V25.2379C15 25.7902 15.4477 26.2379 16 26.2379C16.5523 26.2379 17 25.7902 17 25.2379V17.4837ZM17 32.9922C17 32.4399 16.5523 31.9922 16 31.9922C15.4477 31.9922 15 32.4399 15 32.9922V40.7465C15 41.2988 15.4477 41.7465 16 41.7465C16.5523 41.7465 17 41.2988 17 40.7465V32.9922ZM17 48.5007C17 47.9484 16.5523 47.5007 16 47.5007C15.4477 47.5007 15 47.9484 15 48.5007V56.255C15 56.8073 15.4477 57.255 16 57.255C16.5523 57.255 17 56.8073 17 56.255V48.5007ZM17 64.0093C17 63.457 16.5523 63.0093 16 63.0093C15.4477 63.0093 15 63.457 15 64.0093V71.7635C15 72.3158 15.4477 72.7635 16 72.7635C16.5523 72.7635 17 72.3158 17 71.7635V64.0093ZM17 79.5178C17 78.9655 16.5523 78.5178 16 78.5178C15.4477 78.5178 15 78.9655 15 79.5178V87.272C15 87.8243 15.4477 88.272 16 88.272C16.5523 88.272 17 87.8243 17 87.272V79.5178Z"/>
</mask>
<path fill-rule="evenodd" clip-rule="evenodd" d="M0 0H8C11.6743 0 14.77 2.47703 15.7084 5.85229H15V9.72942C15 10.2817 15.4477 10.7294 16 10.7294C16.5523 10.7294 17 10.2817 17 9.72942V5.85229H16.2916C17.23 2.47703 20.3257 0 24 0H37C41.4183 0 45 3.58172 45 8V95C45 99.4183 41.4183 103 37 103H24C20.988 103 18.3647 101.335 17 98.876V95.0263C17 94.474 16.5523 94.0263 16 94.0263C15.4477 94.0263 15 94.474 15 95.0263V98.876C13.6353 101.335 11.012 103 8 103H0V0ZM17 17.4837C17 16.9314 16.5523 16.4837 16 16.4837C15.4477 16.4837 15 16.9314 15 17.4837V25.2379C15 25.7902 15.4477 26.2379 16 26.2379C16.5523 26.2379 17 25.7902 17 25.2379V17.4837ZM17 32.9922C17 32.4399 16.5523 31.9922 16 31.9922C15.4477 31.9922 15 32.4399 15 32.9922V40.7465C15 41.2988 15.4477 41.7465 16 41.7465C16.5523 41.7465 17 41.2988 17 40.7465V32.9922ZM17 48.5007C17 47.9484 16.5523 47.5007 16 47.5007C15.4477 47.5007 15 47.9484 15 48.5007V56.255C15 56.8073 15.4477 57.255 16 57.255C16.5523 57.255 17 56.8073 17 56.255V48.5007ZM17 64.0093C17 63.457 16.5523 63.0093 16 63.0093C15.4477 63.0093 15 63.457 15 64.0093V71.7635C15 72.3158 15.4477 72.7635 16 72.7635C16.5523 72.7635 17 72.3158 17 71.7635V64.0093ZM17 79.5178C17 78.9655 16.5523 78.5178 16 78.5178C15.4477 78.5178 15 78.9655 15 79.5178V87.272C15 87.8243 15.4477 88.272 16 88.272C16.5523 88.272 17 87.8243 17 87.272V79.5178Z" fill="#7A1DFF" fill-opacity="0.1"/>
<path d="M0 0V-1H-1V0H0ZM15.7084 5.85229V6.85229H17.0244L16.6719 5.58443L15.7084 5.85229ZM15 5.85229V4.85229H14V5.85229H15ZM17 5.85229H18V4.85229H17V5.85229ZM16.2916 5.85229L15.3281 5.58443L14.9756 6.85229H16.2916V5.85229ZM17 98.876H16V99.1349L16.1256 99.3612L17 98.876ZM15 98.876L15.8744 99.3612L16 99.1349V98.876H15ZM0 103H-1V104H0V103ZM8 -1H0V1H8V-1ZM16.6719 5.58443C15.6163 1.78773 12.135 -1 8 -1V1C11.2136 1 13.9237 3.16633 14.745 6.12016L16.6719 5.58443ZM15 6.85229H15.7084V4.85229H15V6.85229ZM16 9.72942V5.85229H14V9.72942H16ZM16 9.72942H14C14 10.834 14.8954 11.7294 16 11.7294V9.72942ZM16 9.72942V11.7294C17.1046 11.7294 18 10.834 18 9.72942H16ZM16 5.85229V9.72942H18V5.85229H16ZM16.2916 6.85229H17V4.85229H16.2916V6.85229ZM24 -1C19.865 -1 16.3837 1.78773 15.3281 5.58443L17.255 6.12016C18.0763 3.16633 20.7864 1 24 1V-1ZM37 -1H24V1H37V-1ZM46 8C46 3.02944 41.9706 -1 37 -1V1C40.866 1 44 4.13401 44 8H46ZM46 95V8H44V95H46ZM37 104C41.9706 104 46 99.9706 46 95H44C44 98.866 40.866 102 37 102V104ZM24 104H37V102H24V104ZM16.1256 99.3612C17.6595 102.125 20.6101 104 24 104V102C21.3658 102 19.07 100.545 17.8744 98.3908L16.1256 99.3612ZM16 95.0263V98.876H18V95.0263H16ZM16 95.0263H18C18 93.9217 17.1046 93.0263 16 93.0263V95.0263ZM16 95.0263V93.0263C14.8954 93.0263 14 93.9217 14 95.0263H16ZM16 98.876V95.0263H14V98.876H16ZM8 104C11.3899 104 14.3405 102.125 15.8744 99.3612L14.1256 98.3908C12.93 100.545 10.6342 102 8 102V104ZM0 104H8V102H0V104ZM-1 0V103H1V0H-1ZM16 17.4837H18C18 16.3791 17.1046 15.4837 16 15.4837V17.4837ZM16 17.4837V15.4837C14.8954 15.4837 14 16.3791 14 17.4837H16ZM16 25.2379V17.4837H14V25.2379H16ZM16 25.2379H14C14 26.3425 14.8954 27.2379 16 27.2379V25.2379ZM16 25.2379V27.2379C17.1046 27.2379 18 26.3425 18 25.2379H16ZM16 17.4837V25.2379H18V17.4837H16ZM16 32.9922H18C18 31.8876 17.1046 30.9922 16 30.9922V32.9922ZM16 32.9922V30.9922C14.8954 30.9922 14 31.8876 14 32.9922H16ZM16 40.7465V32.9922H14V40.7465H16ZM16 40.7465H14C14 41.851 14.8954 42.7465 16 42.7465V40.7465ZM16 40.7465V42.7465C17.1046 42.7465 18 41.851 18 40.7465H16ZM16 32.9922V40.7465H18V32.9922H16ZM16 48.5007H18C18 47.3962 17.1046 46.5007 16 46.5007V48.5007ZM16 48.5007V46.5007C14.8954 46.5007 14 47.3962 14 48.5007H16ZM16 56.255V48.5007H14V56.255H16ZM16 56.255H14C14 57.3596 14.8954 58.255 16 58.255V56.255ZM16 56.255V58.255C17.1046 58.255 18 57.3596 18 56.255H16ZM16 48.5007V56.255H18V48.5007H16ZM16 64.0093H18C18 62.9047 17.1046 62.0093 16 62.0093V64.0093ZM16 64.0093V62.0093C14.8954 62.0093 14 62.9047 14 64.0093H16ZM16 71.7635V64.0093H14V71.7635H16ZM16 71.7635H14C14 72.8681 14.8954 73.7635 16 73.7635V71.7635ZM16 71.7635V73.7635C17.1046 73.7635 18 72.8681 18 71.7635H16ZM16 64.0093V71.7635H18V64.0093H16ZM16 79.5178H18C18 78.4132 17.1046 77.5178 16 77.5178V79.5178ZM16 79.5178V77.5178C14.8954 77.5178 14 78.4132 14 79.5178H16ZM16 87.272V79.5178H14V87.272H16ZM16 87.272H14C14 88.3766 14.8954 89.272 16 89.272V87.272ZM16 87.272V89.272C17.1046 89.272 18 88.3766 18 87.272H16ZM16 79.5178V87.272H18V79.5178H16Z" fill="#C49DFC" mask="url(#path-1-inside-1_20_6385)"/>
</g>
</svg>
